
<svg height="100%" style="fill-rule:evenodd;clip-rule:evenodd;stroke-linecap:round;stroke-linejoin:round;" xmlns:xlink="http://www.w3.org/1999/xlink" xmlns="http://www.w3.org/2000/svg" xml:space="preserve" width="100%" xmlns:vectornator="http://vectornator.io" version="1.1" viewBox="0 0 1024 1024">
<metadata>
<vectornator:setting key="DisplayWhiteBackground" value="0"/>
<vectornator:setting key="RulersVisible" value="1"/>
<vectornator:setting key="GridSpacing" value="36"/>
<vectornator:setting key="Units" value="Pixels"/>
<vectornator:setting key="DynamicGuides" value="0"/>
<vectornator:setting key="SnapToPoints" value="0"/>
<vectornator:setting key="SnapToGrid" value="0"/>
<vectornator:setting key="ShowGrid" value="1"/>
<vectornator:setting key="SnapToEdges" value="0"/>
</metadata>
<defs/>
<g id="Layer 1" vectornator:layerName="Layer 1">
<path stroke="#ffffff" stroke-width="21.88" d="M486.777+309.393C406.827+303.312+329.092+306.105+249.526+314.711C229.086+316.922+207.584+318.748+187.533+323.56C180.349+325.283+168.619+323.47+166.502+330.547C165.085+335.282+169.322+332.299+170.064+332.294C191.204+332.151+213.067+335.233+234.088+336.96C297.296+342.155+360.436+348.895+423.202+357.91C430.315+358.931+472.976+363.388+474.185+375.22C475.218+385.335+423.98+389.509+417.684+390.188C355.256+396.915+292.244+392.866+229.807+400.38C225.978+400.841+172.103+406.506+171.843+412.73C171.659+417.115+187.679+417.892+189.928+418.263C207.883+421.224+225.992+423.246+244.043+425.603C297.803+432.623+352.489+432.213+406.497+436.171C417.489+436.976+461.675+441.407+465.51+455.088C469.194+468.23+401.255+472.666+392.542+473.591C336.827+479.504+280.666+479.66+224.951+485.929C217.995+486.711+179.995+489.922+175.262+495.521C174.459+496.47+177.736+495.79+178.953+496.039C180.744+496.405+193.613+500.028+195.719+500.317C206.808+501.841+217.977+502.831+229.155+503.405C245.484+504.245+261.848+504.189+278.186+504.818C302.967+505.772+327.752+506.923+352.529+507.982C385.728+509.401+419.236+510.811+452.173+515.452L451.501+520.826C409.327+514.716+366.447+514.98+323.997+512.3C281.062+509.59+237.442+509.327+194.727+504.038C191.346+503.619+164.101+499.013+173.439+490.416C183.332+481.308+212.402+481.588+224.43+480.364C271.645+475.557+318.963+474.923+366.276+471.763C390.39+470.152+414.662+467.092+438.523+463.294C445.196+462.232+452.021+461.789+458.509+459.9C459.419+459.635+464.37+458.386+462.536+455.784C451.051+439.481+412.73+439.293+395.912+438.194C340.51+434.575+284.881+436.395+229.873+428.305C221.866+427.128+164.994+420.552+169.491+409.908C173.429+400.584+211.77+398.415+219.544+397.693C278.359+392.233+336.871+392.196+395.784+388.64C416.646+387.381+436.957+384.419+457.501+380.722C459.787+380.31+470.581+380.247+471.235+377.432C472.29+372.895+458.253+368.857+455.736+367.994C439.2+362.32+419.686+361.165+402.471+359.175C339.11+351.852+275.823+345.069+212.212+340.102C206.671+339.669+165.676+340.01+163.916+331.073C161.987+321.284+216.764+315.014+222.588+314.208C311.044+301.965+398.785+289.015+488.11+302.06" fill="#ffffff" stroke-linecap="butt" opacity="1" stroke-linejoin="round"/>
</g>
</svg>
