<?xml version="1.0" encoding="UTF-8" standalone="no"?>
<!DOCTYPE svg PUBLIC "-//W3C//DTD SVG 1.1//EN" "http://www.w3.org/Graphics/SVG/1.1/DTD/svg11.dtd">
<svg version="1.1" xmlns="http://www.w3.org/2000/svg" xmlns:xlink="http://www.w3.org/1999/xlink" preserveAspectRatio="xMidYMid meet" viewBox="0 0 50 50" width="50" height="50"><defs><path d="M35.41 3.08L36.11 3.17L36.79 3.3L37.45 3.47L38.11 3.66L38.74 3.9L39.36 4.16L39.97 4.45L40.56 4.78L41.13 5.13L41.67 5.51L42.2 5.92L42.71 6.35L43.19 6.81L43.65 7.29L44.08 7.8L44.49 8.33L44.87 8.87L45.22 9.44L45.55 10.03L45.84 10.64L46.1 11.26L46.34 11.89L46.53 12.55L46.7 13.21L46.83 13.89L46.92 14.59L46.98 15.29L47 16L47 34L46.98 34.71L46.92 35.41L46.83 36.11L46.7 36.79L46.53 37.45L46.34 38.11L46.1 38.74L45.84 39.36L45.55 39.97L45.22 40.56L44.87 41.13L44.49 41.67L44.08 42.2L43.65 42.71L43.19 43.19L42.71 43.65L42.2 44.08L41.67 44.49L41.13 44.87L40.56 45.22L39.97 45.55L39.36 45.84L38.74 46.1L38.11 46.34L37.45 46.53L36.79 46.7L36.11 46.83L35.41 46.92L34.71 46.98L34 47L16 47L15.29 46.98L14.59 46.92L13.89 46.83L13.21 46.7L12.55 46.53L11.89 46.34L11.26 46.1L10.64 45.84L10.03 45.55L9.44 45.22L8.87 44.87L8.33 44.49L7.8 44.08L7.29 43.65L6.81 43.19L6.35 42.71L5.92 42.2L5.51 41.67L5.13 41.13L4.78 40.56L4.45 39.97L4.16 39.36L3.9 38.74L3.66 38.11L3.47 37.45L3.3 36.79L3.17 36.11L3.08 35.41L3.02 34.71L3 34L3 16L3.01 15.52L3.06 15.05L3.13 14.58L3.23 14.11L3.36 13.65L3.52 13.19L3.71 12.73L3.92 12.27L4.17 11.82L4.44 11.37L4.75 10.92L5.08 10.48L5.44 10.04L5.83 9.6L6.25 9.17L6.7 8.73L7.17 8.3L7.68 7.88L8.21 7.46L8.78 7.04L9.37 6.62L9.99 6.2L10.64 5.79L11.32 5.39L12.03 4.98L12.76 4.58L13.53 4.18L14.32 3.78L15.15 3.39L16 3L34 3L34.71 3.02L35.41 3.08ZM22.29 14.34L21.03 14.74L19.83 15.29L18.72 15.97L17.7 16.78L16.78 17.7L15.97 18.72L15.29 19.83L14.74 21.03L14.34 22.29L14.09 23.62L14 25L14.09 26.38L14.34 27.71L14.74 28.97L15.29 30.17L15.97 31.28L16.78 32.3L17.7 33.22L18.72 34.03L19.83 34.71L21.03 35.26L22.29 35.66L23.62 35.91L25 36L26.38 35.91L27.71 35.66L28.97 35.26L30.17 34.71L31.28 34.03L32.3 33.22L33.22 32.3L34.03 31.28L34.71 30.17L35.26 28.97L35.66 27.71L35.91 26.38L36 25L35.91 23.62L35.66 22.29L35.26 21.03L34.71 19.83L34.03 18.72L33.22 17.7L32.3 16.78L31.28 15.97L30.17 15.29L28.97 14.74L27.71 14.34L26.38 14.09L25 14L23.62 14.09L22.29 14.34ZM35.59 11.59L35.16 12.22L35 13L35.16 13.78L35.59 14.41L36.22 14.84L37 15L37.78 14.84L38.41 14.41L38.84 13.78L39 13L38.84 12.22L38.41 11.59L37.78 11.16L37 11L36.22 11.16L35.59 11.59Z" id="eoCmWdQph"></path></defs><g><g><g><use xlink:href="#eoCmWdQph" opacity="1" fill="#ffffff" fill-opacity="1"></use><g><use xlink:href="#eoCmWdQph" opacity="1" fill-opacity="0" stroke="#ffffff" stroke-width="1" stroke-opacity="0"></use></g></g></g></g></svg>