
<svg version="1.1" xmlns="http://www.w3.org/2000/svg" xmlns:xlink="http://www.w3.org/1999/xlink" preserveAspectRatio="xMidYMid meet" viewBox="0 0 24 24" width="24" height="24"><defs><path d="M21.17 5.33C22.19 4.72 22.97 3.76 23.34 2.61C22.39 3.17 21.33 3.58 20.21 3.8C19.31 2.85 18.03 2.25 16.62 2.25C13.44 2.25 11.1 5.21 11.82 8.29C7.73 8.09 4.1 6.13 1.67 3.15C0.38 5.36 1 8.26 3.19 9.72C2.39 9.7 1.63 9.48 0.97 9.11C0.91 11.39 2.55 13.52 4.91 14C4.22 14.19 3.46 14.23 2.69 14.08C3.32 16.04 5.13 17.46 7.29 17.5C5.22 19.12 2.61 19.85 0 19.54C2.18 20.94 4.77 21.75 7.55 21.75C16.69 21.75 21.86 14.03 21.54 7.11C22.51 6.41 23.34 5.54 24 4.56C23.12 4.95 22.17 5.21 21.17 5.33Z" id="d3Wh7wPWk9"></path></defs><g><g><path></path><g><use xlink:href="#d3Wh7wPWk9" opacity="1" fill="#ffffff" fill-opacity="1"></use><g><use xlink:href="#d3Wh7wPWk9" opacity="1" fill-opacity="0" stroke="#ffffff" stroke-width="1" stroke-opacity="0"></use></g></g></g></g></svg>