<?xml version="1.0" encoding="UTF-8" standalone="no"?>
<!DOCTYPE svg PUBLIC "-//W3C//DTD SVG 1.1//EN" "http://www.w3.org/Graphics/SVG/1.1/DTD/svg11.dtd">
<svg version="1.1" xmlns="http://www.w3.org/2000/svg" xmlns:xlink="http://www.w3.org/1999/xlink" preserveAspectRatio="xMidYMid meet" viewBox="0 0 24 24" width="24" height="24"><defs><path d="M6 8L6 12L9 12L9 24L14 24L14 12L17.64 12L18 8L14 8C14 7 14 6.44 14 6.33C14 5.38 14.19 5 15.12 5C15.31 5 16.27 5 18 5L18 0C15.72 0 14.45 0 14.19 0C10.6 0 9 1.58 9 4.62C9 4.84 9 5.97 9 8L6 8Z" id="c9JO9kEEz"></path></defs><g><g><path></path><g><use xlink:href="#c9JO9kEEz" opacity="1" fill="#ffffff" fill-opacity="1"></use><g><use xlink:href="#c9JO9kEEz" opacity="1" fill-opacity="0" stroke="#ffffff" stroke-width="1" stroke-opacity="0"></use></g></g></g></g></svg>